# xmcd
#
# Track frame offsets: 
#        150
#        27322
#        46391
#        63204
#        79473
#        100981
#        116759
#        138260
#        156919
#        180328
#        203710
#        222738
#        241690
#        259512
#
# Disc length: 3619 seconds
#
# Revision: 0
# Processed by: cddbd v1.5.2PL0 Copyright (c) Steve Scherf et al.
# Submitted via: ExactAudioCopy v1.0b1
#
DISCID=c10e210e
DTITLE=Neighbor Dave - CrossRoads a' Comin' 
DYEAR=2000
DGENRE=Blues
TTITLE0=Face Down In the Gutter
TTITLE1=Some Time Blues
TTITLE2=Little Bird and the Strong Man
TTITLE3=Ashley's Blues
TTITLE4=Lord, I Miss My Home
TTITLE5=Tail Spin
TTITLE6=Hand and the Handle
TTITLE7=Stayin' Standin'
TTITLE8=Blind Tiger
TTITLE9=Low Country Goin' Down
TTITLE10=Blues Take Us Home
TTITLE11=Lord Love the Blues
TTITLE12=High Stakes
TTITLE13=Crossroads a' Comin'
EXTD=
EXTT0=
EXTT1=
EXTT2=
EXTT3=
EXTT4=
EXTT5=
EXTT6=
EXTT7=
EXTT8=
EXTT9=
EXTT10=
EXTT11=
EXTT12=
EXTT13=
PLAYORDER=
